<?xml version="1.0" encoding="utf-8"?>
<!-- Generator: Adobe Illustrator 19.1.0, SVG Export Plug-In . SVG Version: 6.00 Build 0)  -->
<svg version="1.1" id="Camada_1" xmlns="http://www.w3.org/2000/svg" xmlns:xlink="http://www.w3.org/1999/xlink" x="0px" y="0px"
	 viewBox="0 0 60 60" style="enable-background:new 0 0 60 60;" xml:space="preserve">
<style type="text/css">
	.st0{fill:#FFFFFF;}
</style>
<g>
	<path class="st0" d="M19.2-173.5c0.9,0,1.7,0.3,2.3,1c0.7,0.7,1,1.4,1,2.3v53.4c0,0.9-0.3,1.7-1,2.3c-0.7,0.7-1.4,1-2.3,1H3.9
		v-23.2h7.8l1.2-9.1H3.9v-5.8c0-1.5,0.3-2.6,0.9-3.3c0.6-0.7,1.8-1.1,3.6-1.1l4.8,0v-8.1c-1.6-0.2-4-0.4-7-0.4c-3.5,0-6.4,1-8.5,3.1
		c-2.1,2.1-3.2,5-3.2,8.8v6.7h-7.8v9.1h7.8v23.2h-28.7c-0.9,0-1.7-0.3-2.3-1c-0.7-0.7-1-1.4-1-2.3v-53.4c0-0.9,0.3-1.7,1-2.3
		c0.7-0.7,1.4-1,2.3-1H19.2z"/>
</g>
<g>
	<path class="st0" d="M60,11.2v37.5c0,3.1-1.1,5.7-3.3,7.9c-2.2,2.2-4.8,3.3-7.9,3.3H11.2c-3.1,0-5.7-1.1-7.9-3.3
		C1.1,54.5,0,51.8,0,48.7V11.2c0-3.1,1.1-5.7,3.3-7.9S8.1,0,11.2,0h37.5c3.1,0,5.7,1.1,7.9,3.3S60,8.2,60,11.2z M18.9,14.8
		c0-1.4-0.5-2.5-1.4-3.4c-0.9-0.9-2.1-1.3-3.6-1.3c-1.5,0-2.7,0.4-3.7,1.3c-1,0.9-1.4,2-1.4,3.4c0,1.3,0.5,2.4,1.4,3.3
		s2.1,1.3,3.6,1.3h0c1.5,0,2.8-0.4,3.7-1.3S18.9,16.1,18.9,14.8z M9.3,50.2h9V23.1h-9V50.2z M41.7,50.2h9V34.7c0-4-1-7-2.9-9.1
		c-1.9-2.1-4.4-3.1-7.5-3.1c-3.5,0-6.3,1.5-8.2,4.6h0.1v-3.9h-9c0.1,1.7,0.1,10.8,0,27.1h9V35.1c0-1,0.1-1.7,0.3-2.2
		c0.4-0.9,1-1.7,1.8-2.3c0.8-0.6,1.7-1,2.9-1c3,0,4.5,2,4.5,6.1V50.2z"/>
</g>
</svg>
