<?xml version="1.0" encoding="utf-8"?>
<!-- Generator: Adobe Illustrator 19.1.0, SVG Export Plug-In . SVG Version: 6.00 Build 0)  -->
<svg version="1.1" id="Camada_1" xmlns="http://www.w3.org/2000/svg" xmlns:xlink="http://www.w3.org/1999/xlink" x="0px" y="0px"
	 viewBox="0 0 60 60" style="enable-background:new 0 0 60 60;" xml:space="preserve">
<style type="text/css">
	.st0{fill:#FFFFFF;}
</style>
<g>
	<path class="st0" d="M56.7,0c0.9,0,1.7,0.3,2.3,1c0.7,0.7,1,1.4,1,2.3v53.4c0,0.9-0.3,1.7-1,2.3c-0.7,0.7-1.4,1-2.3,1H41.4V36.8
		h7.8l1.2-9.1h-8.9v-5.8c0-1.5,0.3-2.6,0.9-3.3c0.6-0.7,1.8-1.1,3.6-1.1l4.8,0V9.4c-1.6-0.2-4-0.4-7-0.4c-3.5,0-6.4,1-8.5,3.1
		c-2.1,2.1-3.2,5-3.2,8.8v6.7h-7.8v9.1H32V60H3.3c-0.9,0-1.7-0.3-2.3-1c-0.7-0.7-1-1.4-1-2.3V3.3C0,2.4,0.3,1.6,1,1
		c0.7-0.7,1.4-1,2.3-1H56.7z"/>
</g>
<text transform="matrix(1 0 0 1 630.6556 -118.2152)" style="font-family:'FontAwesome'; font-size:69.9883px;"></text>
</svg>
